HIERARCHY
ROOT Hips
{
  OFFSET -33.9132 29.2015 117.021
  CHANNELS 6 Xposition Yposition Zposition Zrotation Xrotation Yrotation
  JOINT LeftUpLeg
  {
    OFFSET 8.64259 1.95398 -2.38835
    CHANNELS 3 Zrotation Xrotation Yrotation
    JOINT LeftLeg
    {
      OFFSET 43.7702 0 0
      CHANNELS 3 Zrotation Xrotation Yrotation
      JOINT LeftFoot
      {
        OFFSET 40.6238 0 0
        CHANNELS 3 Zrotation Xrotation Yrotation
        JOINT LeftToeBase
        {
          OFFSET 12.7242 0 0
          CHANNELS 3 Zrotation Xrotation Yrotation
          End Site
          {
            OFFSET 0 0 0
          }
        }
      }
    }
  }
  JOINT RightUpLeg
  {
    OFFSET -8.2249 1.95398 -2.59336
    CHANNELS 3 Zrotation Xrotation Yrotation
    JOINT RightLeg
    {
      OFFSET 43.5653 0 0
      CHANNELS 3 Zrotation Xrotation Yrotation
      JOINT RightFoot
      {
        OFFSET 40.6238 0 0
        CHANNELS 3 Zrotation Xrotation Yrotation
        JOINT RightToeBase
        {
          OFFSET 12.7242 0 0
          CHANNELS 3 Zrotation Xrotation Yrotation
          End Site
          {
            OFFSET 0 0 0
          }
        }
      }
    }
  }
  JOINT Spine
  {
    OFFSET 0.165834 0.87714 6.61349
    CHANNELS 3 Zrotation Xrotation Yrotation
    JOINT Spine1
    {
      OFFSET 7.38963 1.71661e-005 0
      CHANNELS 3 Zrotation Xrotation Yrotation
      JOINT Spine2
      {
        OFFSET 11.9445 1.14441e-005 0
        CHANNELS 3 Zrotation Xrotation Yrotation
        JOINT Spine3
        {
          OFFSET 14.7254 4.19617e-005 0
          CHANNELS 3 Zrotation Xrotation Yrotation
          JOINT Spine4
          {
            OFFSET 10.9679 0 0
            CHANNELS 3 Zrotation Xrotation Yrotation
            JOINT RightShoulder
            {
              OFFSET 2.46616 -1.6653 3.69651
              CHANNELS 3 Zrotation Xrotation Yrotation
              JOINT RightArm
              {
                OFFSET 13.0012 0 0
                CHANNELS 3 Zrotation Xrotation Yrotation
                JOINT RightForeArm
                {
                  OFFSET 28.7848 1.62311e-005 0
                  CHANNELS 3 Zrotation Xrotation Yrotation
                  JOINT RightHand
                  {
                    OFFSET 26.5688 1.62095e-005 0
                    CHANNELS 3 Zrotation Xrotation Yrotation
                    End Site
                    {
                      OFFSET 0 0 0
                    }
                  }
                }
              }
            }
            JOINT LeftShoulder
            {
              OFFSET 2.38034 -1.29275 -3.7523
              CHANNELS 3 Zrotation Xrotation Yrotation
              JOINT LeftArm
              {
                OFFSET 16.3182 6.07031e-005 0
                CHANNELS 3 Zrotation Xrotation Yrotation
                JOINT LeftForeArm
                {
                  OFFSET 27.0901 0 0
                  CHANNELS 3 Zrotation Xrotation Yrotation
                  JOINT LeftHand
                  {
                    OFFSET 24.5451 1.51738e-005 0
                    CHANNELS 3 Zrotation Xrotation Yrotation
                    End Site
                    {
                      OFFSET 0 0 0
                    }
                  }
                }
              }
            }
            JOINT Neck
            {
              OFFSET 5.0226 -0.0266342 0
              CHANNELS 3 Zrotation Xrotation Yrotation
              JOINT Head
              {
                OFFSET 6.69364 2.86102e-005 0
                CHANNELS 3 Zrotation Xrotation Yrotation
                End Site
                {
                  OFFSET 0 0 0
                }
              }
            }
          }
        }
      }
    }
  }
}
MOTION
Frames:	17
Frame Time:	0.0416667
-342.774 93.6832 324.142 -102.611 -39.7451 -81.7494 -171.27 19.3646 107.16 -38.352 16.8813 1.2726 73.1897 6.58716 1.54937 13.9468 -12.149 8.00183 -174.498 3.57241 108.031 -8.28382 2.84827 0.321802 54.223 -2.62911 0.732673 24.8203 1.10131 2.53755 -0.63889 12.7527 -90.5667 1.36569 -1.49082 -1.14959 -10.3049 -1.53993 -1.08286 -32.8398 -1.06991 -1.54445 -12.8271 -1.06992 -1.54445 91.5776 8.35739 -136.455 38.0262 -3.39659 -56.8442 -3.2088 1.60051 -4.92029 -17.8529 0.165061 -6.36067 -80.4942 -14.0684 89.9766 -61.5871 -11.3885 -56.3163 -169.041 7.81433 179.987 56.8163 2.33546 9.25787 72.2252 -8.05653 -12.661 -49.1806 7.80369 -7.82477 
-342.799 93.6871 324.102 -102.586 -39.8927 -81.5132 -171.296 19.5042 107.407 -38.418 17.4477 1.3514 73.1847 6.7447 1.95181 13.5703 -12.1129 7.58461 -174.474 3.69931 108.328 -8.29199 1.84447 0.374187 54.6718 -2.80437 -0.0858013 23.4493 2.04649 1.41083 -0.636965 12.7519 -90.5835 1.3664 -1.49325 -1.18266 -10.3042 -1.54388 -1.1158 -32.8391 -1.06919 -1.57674 -12.8265 -1.0692 -1.57672 91.6123 8.41627 -136.432 37.3936 -2.60736 -56.6742 -3.41904 -3.49748 -4.89672 -12.5059 -0.143805 -4.03349 -80.4489 -13.9557 90.0764 -62.2635 -11.7305 -56.0131 -168.85 6.67494 179.987 55.9806 2.23276 9.08672 72.3928 -7.91749 -12.4627 -49.3216 8.05287 -8.37119 
-342.878 93.6104 323.936 -102.37 -40.6244 -80.5946 -171.328 20.3979 108.404 -38.9659 19.045 1.44549 73.4438 7.2169 2.24476 13.1878 -12.4869 7.79149 -174.171 4.20015 109.18 -8.32374 3.03515 0.469804 54.6017 -2.76347 -0.0633238 23.8208 1.89626 1.35111 -0.650418 12.7445 -90.6775 1.37154 -1.55607 -1.36815 -10.2991 -1.61478 -1.29835 -32.8326 -1.07301 -1.77249 -12.8199 -1.07301 -1.77249 91.4697 8.16389 -136.502 37.6976 -2.93341 -56.61 -3.36554 -2.19736 -4.90062 -14.7905 -0.0616877 -4.81752 -80.3706 -13.9698 90.2796 -62.7326 -12.189 -55.9038 -168.672 4.06946 179.987 52.6097 1.98969 8.81034 72.6201 -7.6575 -12.0157 -49.522 8.45822 -9.45737 
-343.046 93.6081 323.802 -102.225 -40.9606 -80.0278 -171.153 20.7507 109.319 -39.3165 19.9901 1.26601 73.3416 7.22348 2.22211 13.8764 -12.0326 7.75272 -173.756 4.06917 109.791 -7.83677 3.90844 0.509941 54.2879 -2.75068 -0.0459298 24.0205 1.79073 1.40114 -0.643774 12.7349 -90.7144 1.3849 -1.55679 -1.43948 -10.286 -1.61862 -1.36957 -32.8177 -1.05232 -1.84073 -12.8051 -1.0523 -1.84074 91.2872 7.78592 -136.474 37.8294 -3.0367 -56.4777 -3.36842 -2.26766 -4.90026 -15.2957 0.00638943 -5.35289 -80.2647 -13.951 90.5498 -62.4347 -12.1938 -56.0857 -168.794 0.651566 179.987 45.4417 1.48711 8.21296 72.7709 -7.22495 -11.2402 -49.601 8.98414 -11.1635 
-343.046 94.3952 326.782 -103.272 -38.2375 -90.4159 -173.776 10.7976 96.3056 -30.3351 8.348 1.97938 71.6002 5.12472 0.849618 12.1016 -12.9169 7.41432 -179.763 3.3571 98.687 -15.6382 -5.16641 -0.401258 59.3526 -2.85211 0.444873 24.3611 1.6926 1.20957 -1.06053 12.7125 -89.5082 1.45397 -1.92929 0.901021 -10.2159 -1.88775 0.985087 -32.7622 -2.11085 0.279314 -12.7495 -2.11085 0.279309 91.1253 7.41487 -136.377 37.7575 -2.91077 -56.3561 -3.37872 -2.51893 -4.90037 -14.8064 0.00163968 -5.3242 -80.1215 -13.9592 90.9192 -62.6974 -12.1909 -55.9031 -168.964 -4.75668 179.987 33.4551 0.4718 5.7837 73.1488 -6.46655 -9.98339 -49.7658 9.74064 -13.5659 
-343.316 94.8806 330.713 -103.547 -35.837 -101.828 178.781 3.59066 80.2593 -16.5469 -3.71993 4.2452 66.6172 3.44683 0.102342 12.5892 -12.6076 7.4078 172.864 7.7491 85.8331 -25.5743 -15.7599 -1.91198 65.3353 -3.58586 0.385875 25.5626 1.20993 0.986377 -1.61457 12.6105 -88.1669 1.67091 -2.52086 3.50643 -10.0027 -2.3642 3.61383 -32.5337 -3.45778 2.58721 -12.5211 -3.45778 2.58721 90.7047 6.57738 -136.398 37.5474 -2.5632 -56.0512 -3.39415 -2.88574 -4.89937 -14.281 -0.0283563 -5.08287 -80.0087 -13.9523 91.2085 -62.358 -11.7856 -55.5867 -169.465 -10.147 179.987 18.7492 -0.219974 1.96709 73.4079 -5.56843 -8.45985 -49.8632 10.571 -16.4547 
-343.731 94.9614 332.353 -103.269 -35.0667 -106.772 174.007 -2.17779 73.435 -8.28152 -8.27223 5.5795 63.2085 3.34563 -0.0486314 12.6575 -12.5225 7.34234 170.106 8.65823 78.2266 -29.379 -20.4907 -2.60955 67.6478 -4.3814 0.0767358 25.7634 1.18594 0.74701 -1.85581 12.5266 -87.5526 1.84896 -2.7639 4.70491 -9.82802 -2.55438 4.82167 -32.3413 -4.04925 3.6584 -12.3286 -4.04924 3.65841 90.3603 5.8495 -136.339 37.5294 -2.44391 -55.7717 -3.38827 -2.75168 -4.89552 -14.9168 0.00584401 -5.35639 -79.8589 -14.1018 91.6107 -61.3507 -11.5223 -55.6404 -170.047 -14.6128 179.986 6.14905 -0.148758 -2.22186 73.6719 -4.59171 -6.83994 -49.888 11.5035 -19.646 
-344.066 94.9621 332.535 -102.747 -34.6685 -108.64 173.018 -2.07448 71.2081 -6.68557 -9.33889 5.3957 62.696 3.346 -0.0380031 12.3389 -12.7387 7.36987 169.742 10.2524 76.2162 -31.0043 -21.7796 -3.28069 68.2575 -4.55898 -0.12957 26.1844 1.00858 0.691223 -1.8978 12.433 -87.2693 2.0371 -2.73471 5.26668 -9.64211 -2.5006 5.38153 -32.141 -4.18987 4.20383 -12.1283 -4.18986 4.20382 89.7614 4.74686 -136.56 37.3008 -1.94552 -55.0642 -3.41919 -3.49859 -4.89572 -14.6359 0.00266671 -5.335 -79.7812 -14.3923 91.8436 -60.5672 -11.2351 -55.4809 -170.574 -18.2026 179.986 -3.48783 0.492528 -5.19501 73.7058 -3.45575 -5.0351 -49.8069 12.5522 -23.2825 
-344.243 94.9445 331.729 -102.04 -34.1943 -108.778 174.134 -1.56384 71.9182 -7.09675 -8.89572 4.02331 62.2962 3.15081 -0.00589378 13.3177 -11.8399 6.92443 170.887 10.9874 76.7914 -31.6204 -20.9632 -4.24764 68.1493 -4.40059 -0.237696 26.275 0.888743 0.978005 -1.78776 12.3454 -87.1746 2.20675 -2.47468 5.46447 -9.47375 -2.23216 5.56767 -31.9612 -4.00108 4.471 -11.9486 -4.00108 4.47099 89.1521 3.52087 -136.595 37.047 -1.45035 -54.4289 -3.42919 -3.74984 -4.89457 -14.6545 -0.0287725 -5.07966 -79.6917 -14.991 92.1341 -59.0133 -10.6112 -55.9494 -171.241 -20.1623 179.986 -9.11777 0.981949 -6.53954 73.499 -2.10468 -2.9362 -49.4087 13.5103 -27.1517 
-344.386 94.8322 330.116 -101.361 -33.8073 -107.072 176.848 -0.916231 75.3253 -8.48605 -6.46089 2.17039 62.5404 3.38647 0.303206 13.0726 -12.156 7.17678 173.306 10.93 79.9423 -31.2583 -18.1306 -5.05461 67.3201 -4.02359 -0.236688 26.4924 0.729789 1.20086 -1.51465 12.2751 -87.2918 2.33671 -1.97176 5.25047 -9.34367 -1.73909 5.33184 -31.8264 -3.45717 4.41769 -11.8137 -3.45716 4.41769 88.5874 2.42649 -136.71 36.8133 -0.807792 -53.2295 -3.41901 -3.49808 -4.89227 -14.0224 -0.0215796 -5.13978 -79.8148 -15.5524 91.8831 -58.0725 -10.4792 -55.7677 -171.769 -22.0773 179.986 -11.8741 1.24897 -7.35505 72.8878 -0.699619 -0.77587 -48.5992 14.3842 -31.2319 
-344.452 94.536 328.017 -100.937 -33.2476 -103.352 -178.274 3.45214 81.3234 -16.2571 -2.50742 -0.139396 66.3348 3.86053 0.168766 11.9334 -13.0973 7.52603 176.88 10.6601 85.4354 -29.7567 -13.8114 -5.25693 65.8409 -3.82386 -0.0127023 26.2693 0.793142 1.33761 -1.0466 12.2178 -87.6154 2.43828 -1.16101 4.63682 -9.24055 -0.956015 4.68327 -31.7258 -2.49978 4.07513 -11.7132 -2.49979 4.07512 87.6363 0.758668 -137.181 36.1698 0.459119 -51.3138 -3.4208 -3.54068 -4.89392 -14.5959 0.127929 -6.35089 -79.9312 -16.3181 91.6779 -55.3904 -9.62755 -56.0753 -172.804 -22.3582 179.986 -15.4661 1.70549 -8.20488 71.9372 0.314381 0.960465 -47.73 14.7714 -34.2755 
-344.195 93.9399 326.073 -101.788 -31.5509 -103.266 -175.403 4.4179 84.2461 -20.8561 -0.908667 -2.32841 68.0906 3.99998 0.135102 11.6132 -13.2495 7.45279 179.643 11.0564 87.6315 -31.7265 -11.5151 -6.20246 65.5341 -4.25277 0.00615058 26.6109 0.681973 1.17907 -0.650473 12.2604 -87.5972 2.33767 -0.364725 4.68448 -9.34168 -0.158417 4.69596 -31.8168 -1.75445 4.35947 -11.8041 -1.75446 4.35946 86.9172 -0.632885 -137.323 35.5414 1.70831 -49.1643 -3.39608 -2.93554 -4.89788 -15.0287 0.269835 -7.44451 -80.3286 -17.3989 90.8359 -52.3784 -9.28358 -55.9178 -173.869 -22.5825 179.986 -20.8367 2.6685 -10.0957 70.183 1.21264 2.59168 -46.1626 14.534 -36.5054 
-343.707 93.1733 324.496 -102.859 -29.7543 -103.281 -172.964 6.25099 86.569 -25.5934 0.813962 -4.3792 69.1089 3.76911 0.68987 12.3289 -12.6736 7.26267 -178.317 12.1303 89.2718 -34.4413 -9.19683 -6.58272 65.7714 -5.0638 1.02573 26.2098 0.963307 0.814291 -0.239114 12.2982 -87.5539 2.24263 0.471617 4.78346 -9.43692 0.681429 4.75816 -31.9033 -0.986154 4.70459 -11.8906 -0.986153 4.70458 86.0586 -2.22474 -137.597 35.0562 2.82137 -46.7235 -3.3176 -1.0306 -4.90548 -15.604 0.402171 -8.35618 -80.9395 -18.021 89.454 -49.033 -9.23169 -54.8973 -174.975 -21.4912 179.985 -25.0365 3.66489 -11.743 68.0932 1.61824 3.56328 -44.5555 13.9286 -37.5749 
-342.681 92.275 324.194 -104.108 -26.6814 -108.942 -173.576 4.97516 81.9897 -25.3601 -2.63253 -6.26056 69.3525 3.74564 0.777791 9.55507 -13.7961 6.36697 -177.496 15.5269 84.7546 -42.693 -11.1766 -8.76999 66.6117 -5.26624 0.901243 27.3804 0.492668 0.581896 -0.147014 12.3672 -86.8316 2.0761 0.930975 6.20305 -9.60899 1.20258 6.15634 -32.0274 -0.97263 6.19668 -12.0148 -0.97265 6.19667 83.9891 -5.9741 -138.331 33.5162 4.71757 -44.7631 -3.29378 -0.441542 -4.90793 -14.2901 0.273124 -7.60134 -81.4518 -18.0912 88.2448 -45.933 -9.28179 -52.9218 -175.942 -18.2898 179.985 -27.6395 3.90513 -11.0975 65.6362 2.28064 4.35006 -42.584 13.3955 -38.1478 
-341.232 91.7777 325.137 -104.688 -22.4439 -120.445 -179.805 0.136273 69.0419 -16.4418 -12.1921 -7.34085 64.4039 2.97159 1.14208 9.38803 -13.9161 6.38748 -177.429 19.3527 72.9348 -54.209 -11.9258 -12.629 69.6391 -5.69399 0.27093 27.4192 0.567952 0.228706 -0.427003 12.4112 -85.3742 1.92763 0.927866 9.04726 -9.77399 1.3235 8.99829 -32.0633 -1.82288 8.91126 -12.0506 -1.82289 8.91126 83.019 -7.25764 -139.249 34.8343 3.99551 -42.7495 -3.22648 1.14577 -4.91783 -14.1525 0.263958 -7.53109 -81.9433 -17.8842 87.0439 -43.1532 -10.3735 -49.288 -176.519 -15.2991 179.985 -28.9222 3.83657 -10.2653 62.4683 3.09211 4.86938 -40.207 12.775 -37.8077 
-339.734 91.4306 326.568 -104.921 -17.8763 -134.628 171.7 2.12658 52.7042 -10.775 -26.3597 -7.66171 61.3327 2.01376 0.364516 7.5163 -14.5766 5.66696 -174.498 22.16 55.9319 -70.4233 -12.1362 -16.9959 70.5564 -4.74795 -0.28765 28.8016 -0.441511 1.75928 -0.842311 12.5083 -83.6609 1.65034 0.739387 12.3837 -10.0787 1.27949 12.3403 -32.1602 -2.98878 12.0455 -12.1476 -2.98876 12.0455 80.1648 -11.5382 -141.076 33.8494 5.50553 -39.706 -3.31638 -0.629441 -4.9053 -13.2172 0.406895 -9.02462 -82.3128 -18.6641 86.3212 -41.3138 -12.0501 -46.468 -176.346 -11.1524 179.985 -17.445 0.711004 -2.47619 58.4311 3.90431 5.25088 -37.1795 11.6201 -35.8545 
-338.387 90.7972 327.947 -103.118 -14.361 -148.846 167.493 13.0274 37.523 -9.75668 -38.6354 -7.1379 59.2312 -0.826411 0.266649 6.7806 -14.4983 4.92456 -168.16 21.8114 35.8733 -85.2283 -18.2793 -23.0795 69.0683 -3.19245 -0.665301 28.422 -0.187407 1.40658 -1.29986 12.4396 -81.9161 1.68823 0.490002 15.781 -10.0774 1.1754 15.7457 -31.8857 -4.21939 15.228 -11.873 -4.2194 15.228 76.114 -17.738 -143.14 32.0215 7.62674 -36.1967 -3.54422 -6.53738 -4.89065 -13.8147 0.648117 -10.9263 -82.27 -19.5992 86.6012 -41.0742 -13.6264 -45.231 -175.701 -7.33475 179.986 1.93925 -0.793759 8.40609 53.7643 4.25438 4.5733 -33.6859 10.2589 -32.0341 
